<?xml version="1.0" standalone="no"?><!DOCTYPE svg PUBLIC "-//W3C//DTD SVG 1.1//EN" "http://www.w3.org/Graphics/SVG/1.1/DTD/svg11.dtd"><svg t="1583217381580" class="icon" viewBox="0 0 1024 1024" version="1.1" xmlns="http://www.w3.org/2000/svg" p-id="1216" width="16" height="16" xmlns:xlink="http://www.w3.org/1999/xlink"><defs><style type="text/css"></style></defs><path d="M880.64 358.4h-819.2v423.936c0 34.816 26.624 61.44 61.44 61.44h491.52c12.288 0 20.48 8.192 20.48 20.48s-8.192 20.48-20.48 20.48h-491.52c-57.344 0-102.4-45.056-102.4-102.4v-552.96c0-57.344 45.056-102.4 102.4-102.4h696.32c57.344 0 102.4 45.056 102.4 102.4v176.128c0 12.288-8.192 20.48-20.48 20.48s-20.48-8.192-20.48-20.48v-47.104z m0-40.96v-88.064c0-34.816-26.624-61.44-61.44-61.44h-696.32c-34.816 0-61.44 26.624-61.44 61.44v88.064h819.2z m-204.8-51.2c-12.288 0-20.48-8.192-20.48-20.48s8.192-20.48 20.48-20.48 20.48 8.192 20.48 20.48-8.192 20.48-20.48 20.48z m61.44 0c-12.288 0-20.48-8.192-20.48-20.48s8.192-20.48 20.48-20.48 20.48 8.192 20.48 20.48-8.192 20.48-20.48 20.48z m61.44 0c-12.288 0-20.48-8.192-20.48-20.48s8.192-20.48 20.48-20.48 20.48 8.192 20.48 20.48-8.192 20.48-20.48 20.48z m-448.512 241.664c6.144-10.24 18.432-12.288 28.672-8.192 10.24 6.144 12.288 18.432 8.192 28.672l-102.4 178.176c-6.144 10.24-18.432 12.288-28.672 8.192s-12.288-18.432-8.192-28.672l102.4-178.176z m-126.976 6.144l-55.296 90.112 55.296 94.208c6.144 10.24 2.048 22.528-8.192 28.672-10.24 6.144-22.528 2.048-28.672-8.192l-67.584-114.688 67.584-110.592c6.144-10.24 18.432-12.288 28.672-6.144 10.24 4.096 12.288 16.384 8.192 26.624z m188.416 184.32l55.296-94.208-55.296-90.112c-6.144-10.24-2.048-22.528 6.144-28.672 10.24-6.144 22.528-2.048 28.672 6.144l67.584 110.592-67.584 114.688c-6.144 10.24-18.432 12.288-28.672 8.192-8.192-4.096-10.24-18.432-6.144-26.624z m577.536-122.88l4.096 10.24-40.96 51.2c-8.192 10.24-8.192 26.624 0 36.864l38.912 47.104-4.096 10.24c-8.192 26.624-22.528 51.2-38.912 71.68l-8.192 10.24-61.44-10.24c-12.288-2.048-26.624 6.144-30.72 18.432l-20.48 61.44-10.24 2.048c-32.768 8.192-69.632 8.192-102.4 0l-12.288-2.048-20.48-61.44c-4.096-12.288-18.432-20.48-30.72-18.432l-63.488 10.24-8.192-8.192c-8.192-10.24-16.384-20.48-22.528-32.768-8.192-12.288-14.336-26.624-18.432-40.96l-4.096-10.24 40.96-49.152c8.192-10.24 8.192-26.624 0-36.864l-40.96-49.152 4.096-10.24c10.24-26.624 22.528-51.2 40.96-73.728l8.192-8.192 61.44 10.24c12.288 2.048 26.624-6.144 30.72-18.432l22.528-61.44 10.24-2.048c32.768-6.144 67.584-6.144 100.352 0l12.288 2.048 20.48 59.392c4.096 12.288 18.432 20.48 30.72 20.48l63.488-8.192 8.192 8.192c8.192 10.24 16.384 20.48 22.528 32.768 8.192 12.288 14.336 24.576 18.432 38.912z m-53.248-20.48l-12.288-18.432-38.912 4.096c-32.768 4.096-65.536-16.384-75.776-47.104l-12.288-36.864c-20.48-4.096-40.96-4.096-61.44 0l-14.336 38.912c-10.24 30.72-45.056 51.2-75.776 45.056l-36.864-6.144c-10.24 12.288-16.384 26.624-22.528 40.96l26.624 30.72c20.48 24.576 20.48 63.488 0 90.112l-26.624 30.72c4.096 8.192 6.144 16.384 12.288 24.576 4.096 6.144 6.144 12.288 10.24 16.384l40.96-6.144c32.768-4.096 65.536 16.384 75.776 47.104l12.288 38.912c20.48 4.096 40.96 4.096 61.44 0l14.336-40.96c10.24-30.72 45.056-51.2 75.776-45.056l36.864 6.144c8.192-12.288 16.384-26.624 22.528-40.96l-24.576-28.672c-20.48-24.576-20.48-63.488-2.048-88.064l26.624-32.768c-4.096-6.144-8.192-14.336-12.288-22.528z m-169.984 202.752c-57.344 0-102.4-45.056-102.4-102.4s45.056-102.4 102.4-102.4 102.4 45.056 102.4 102.4c0 55.296-47.104 102.4-102.4 102.4z m0-40.96c34.816 0 61.44-26.624 61.44-61.44s-26.624-61.44-61.44-61.44-61.44 26.624-61.44 61.44 26.624 61.44 61.44 61.44z" p-id="1217"></path></svg>